<?xml version="1.0" encoding="utf-8"?>
<svg width="160px" height="160px" viewBox="-58.678 -13.704 37.204 37.204" xmlns="http://www.w3.org/2000/svg">
  <defs>
    <clipPath id="clipPath306" clipPathUnits="userSpaceOnUse">
      <path id="path304" d="M -757.008,-796.382 H 1038.7 V 999.554 H -757.008 Z"/>
    </clipPath>
    <clipPath id="clipPath318" clipPathUnits="userSpaceOnUse">
      <path id="path316" d="M -747.008,-733.382 H 1048.7 V 1062.55 H -747.008 Z"/>
    </clipPath>
    <clipPath id="clipPath348" clipPathUnits="userSpaceOnUse">
      <path id="path346" d="M 32768,32768 H -32768 V -32768 H 32768 Z"/>
    </clipPath>
    <linearGradient gradientUnits="userSpaceOnUse" x1="66.892" y1="-245.52" x2="66.892" y2="-147.844" id="gradient-0" gradientTransform="matrix(0.887682, 0, 0, 0.887682, 12.998569, -23.096066)">
      <stop offset="0" style="stop-color: rgba(234, 234, 234, 1)"/>
      <stop offset="1" style="stop-color: rgba(183, 183, 183, 1)"/>
    </linearGradient>
    <clipPath id="clipPath376" clipPathUnits="userSpaceOnUse">
      <path id="path374" d="M 32768,32768 H -32768 V -32768 H 32768 Z"/>
    </clipPath>
    <clipPath id="clipPath426" clipPathUnits="userSpaceOnUse">
      <path id="path424" d="m 8.127,0 h 279 v 279 h -279 z"/>
    </clipPath>
    <clipPath id="clipPath438" clipPathUnits="userSpaceOnUse">
      <path id="path436" d="m 8.127,0 h 279 v 279 h -279 z"/>
    </clipPath>
    <clipPath id="clipPath452" clipPathUnits="userSpaceOnUse">
      <path id="path450" d="M -1016,-351 H 1660 V 1068 H -1016 Z"/>
    </clipPath>
    <clipPath id="clipPath468" clipPathUnits="userSpaceOnUse">
      <path id="path466" d="M -1021,-463 H 1794 V 1233 H -1021 Z"/>
    </clipPath>
    <clipPath id="clipPath484" clipPathUnits="userSpaceOnUse">
      <path id="path482" d="M -1016,-351 H 1660 V 1068 H -1016 Z"/>
    </clipPath>
    <clipPath id="clipPath500" clipPathUnits="userSpaceOnUse">
      <path id="path498" d="M 32768,32768 H -32768 V -32768 H 32768 Z"/>
    </clipPath>
    <clipPath id="clipPath512" clipPathUnits="userSpaceOnUse">
      <path id="path510" d="M 32768,32768 H -32768 V -32768 H 32768 Z"/>
    </clipPath>
    <clipPath id="clipPath524" clipPathUnits="userSpaceOnUse">
      <path id="path522" d="M 32768,32768 H -32768 V -32768 H 32768 Z"/>
    </clipPath>
  </defs>
  <g transform="matrix(0.462213, 0, 0, -0.462213, -68.907242, 67.153191)" id="g298">
    <g id="g300">
      <g clip-path="url(#clipPath306)" id="g302">
        <g id="g308">
          <g transform="translate(-10,-63)" id="g310">
            <g id="g312">
              <g clip-path="url(#clipPath318)" id="g314">
                <g id="g320">
                  <g transform="translate(8.1268)" id="g324"/>
                  <g transform="translate(140.9609,226.764)" id="g328"/>
                  <g transform="translate(140.9609,226.764)" id="g332"/>
                  <g transform="translate(140.9609,226.764)" id="g336"/>
                  <g transform="matrix(0.025,0,0,0.025,229.49722,91.205613)" id="g340">
                    <g id="g342">
                      <g clip-path="url(#clipPath348)" id="g344">
                        <g id="g350"/>
                      </g>
                    </g>
                  </g>
                  <g transform="translate(275.5326,155.8409)" id="g352"/>
                  <ellipse style="fill: url(#gradient-0); fill-rule: nonzero;" transform="matrix(1, 0, 0, -1, 0, 0)" cx="72.377" cy="-197.688" rx="40.246" ry="40.246"/>
                  <g transform="translate(248.4526,133.6338)" id="g356"/>
                  <g transform="translate(220.3954,110.6252)" id="g360">
                    <path id="path362" style="fill:none;stroke:#b0b0b0;stroke-width:0.80000001;stroke-linecap:butt;stroke-linejoin:round;stroke-miterlimit:10;stroke-dasharray:0.8, 1.32;stroke-dashoffset:0;stroke-opacity:1" d="M -116.118 62.41 L -138.262 74.312 L -140.259 125.94"/>
                  </g>
                  <g transform="translate(191.307,86.771)" id="g364">
                    <path id="path366" style="fill:none;stroke:#b0b0b0;stroke-width:0.80000001;stroke-linecap:butt;stroke-linejoin:round;stroke-miterlimit:10;stroke-dasharray:0.8, 1.32;stroke-dashoffset:0;stroke-opacity:1" d="M -138.961 75.987 L -142.151 142.784"/>
                  </g>
                  <g transform="matrix(0.025,0,0,0.025,72.191634,85.81771)" id="g368">
                    <g id="g370">
                      <g clip-path="url(#clipPath376)" id="g372">
                        <g id="g378"/>
                      </g>
                    </g>
                  </g>
                  <g transform="translate(143.328,277.8002)" id="g380">
                    <path id="path382" style="fill:none;stroke:#b0b0b0;stroke-width:0.80000001;stroke-linecap:butt;stroke-linejoin:round;stroke-miterlimit:10;stroke-dasharray:0.8, 1.32;stroke-dashoffset:0;stroke-opacity:1" d="M -31.869 -75.221 L -89.07 -116"/>
                  </g>
                  <g transform="translate(169.1505,265.3102)" id="g384"/>
                  <g transform="translate(195.5497,252.5412)" id="g388"/>
                  <g transform="translate(222.5452,239.4839)" id="g392"/>
                  <g transform="translate(250.1574,226.1282)" id="g396"/>
                  <g transform="translate(23.6972,143.3883)" id="g400"/>
                  <g transform="translate(22.2503,163.7542)" id="g404">
                    <path id="path406" style="fill:none;stroke:#b0b0b0;stroke-width:0.80000001;stroke-linecap:butt;stroke-linejoin:round;stroke-miterlimit:10;stroke-dasharray:0.8, 1.32;stroke-dashoffset:0;stroke-opacity:1" d="M 16.678 11.658 L 81.972 57.298"/>
                  </g>
                  <g transform="translate(20.8086,184.0468)" id="g408"/>
                  <g transform="translate(23.2662,164.4643)" id="g412"/>
                  <g transform="translate(21.8366,184.7531)" id="g416"/>
                  <g id="g420">
                    <g clip-path="url(#clipPath426)" id="g422">
                      <g transform="translate(141.3382,226.847)" id="g428">
                        <path id="path430" style="fill:none;stroke:#9467bd;stroke-width:1.5;stroke-linecap:square;stroke-linejoin:round;stroke-miterlimit:10;stroke-dasharray:none;stroke-opacity:1" d="M -30.686 -19.43 L -30.83 -19.467 L -31.015 -19.514 L -31.175 -19.701 L -31.335 -19.887 L -31.656 -20.259 L -32.797 -21.572 L -33.939 -22.869 L -35.083 -24.146 L -36.229 -25.399 L -37.376 -26.626 L -38.525 -27.822 L -39.676 -28.986 L -40.83 -30.113 L -41.985 -31.202 L -43.143 -32.249 L -44.304 -33.254 L -45.467 -34.214 L -46.634 -35.127 L -47.803 -35.992 L -48.976 -36.808 L -50.152 -37.573 L -51.331 -38.287 L -52.514 -38.95 L -53.701 -39.56 L -54.891 -40.117 L -56.085 -40.622 L -57.284 -41.075 L -58.486 -41.477 L -59.693 -41.827 L -60.904 -42.127 L -62.119 -42.378 L -63.339 -42.582 L -64.563 -42.739 L -65.792 -42.852 L -67.025 -42.923 L -68.263 -42.954 L -69.505 -42.947 L -70.751 -42.905 L -72.002 -42.831 L -73.257 -42.729 L -74.516 -42.601 L -75.78 -42.451 L -77.047 -42.284 L -78.319 -42.103 L -79.594 -41.913 L -80.872 -41.719 L -82.154 -41.525 L -83.438 -41.336 L -84.726 -41.159 L -86.015 -40.999 L -87.307 -40.861 L -88.601 -40.752 L -89.895 -40.678 L -91.191 -40.647 L -92.487 -40.665 L -93.783 -40.74 L -95.078 -40.878 L -96.372 -41.088 L -97.664 -41.378 L -98.953 -41.756 L -100.239 -42.231 L -101.522 -42.811 L -102.799 -43.505 L -104.081 -44.22 L -105.26 -44.729"/>
                      </g>
                    </g>
                  </g>
                  <g id="g432">
                    <g clip-path="url(#clipPath438)" id="g434">
                      <g transform="translate(24.0366,141.7855)" id="g440">
                        <path id="path442" style="fill:none;stroke:#17becf;stroke-width:1.5;stroke-linecap:butt;stroke-linejoin:round;stroke-miterlimit:10;stroke-dasharray:5.55, 2.4;stroke-dashoffset:0;stroke-opacity:1" d="M 17.839 29.877 L 18.949 33.176 L 20.051 36.625 L 21.148 40.199 L 22.242 43.865 L 23.335 47.587 L 24.429 51.318 L 25.528 55.012 L 26.633 58.615 L 27.748 62.074 L 28.876 65.334 L 30.018 68.342 L 31.177 71.049 L 32.354 73.414 L 33.55 75.399 L 34.766 76.98 L 36.002 78.139 L 37.257 78.872 L 38.529 79.185 L 39.818 79.096 L 41.121 78.632 L 42.436 77.83 L 43.759 76.732 L 45.089 75.388 L 46.423 73.851 L 47.758 72.175 L 49.091 70.412 L 50.42 68.615 L 51.743 66.832 L 53.059 65.103 L 54.366 63.467 L 55.664 61.954 L 56.95 60.587 L 58.227 59.383 L 59.492 58.354 L 60.747 57.504 L 61.991 56.834 L 63.226 56.338 L 64.451 56.01 L 65.669 55.837 L 66.878 55.809 L 68.081 55.909 L 69.277 56.125 L 70.468 56.44 L 71.654 56.841 L 72.836 57.315 L 74.013 57.847 L 75.188 58.428 L 76.359 59.047 L 77.528 59.695 L 78.695 60.364 L 79.859 61.047 L 81.021 61.741 L 82.181 62.44 L 83.34 63.141 L 84.496 63.842 L 85.651 64.54 L 86.805 65.235"/>
                      </g>
                    </g>
                  </g>
                  <g transform="matrix(0.0216506,0.0125,-0.0125,0.0216506,32.270277,231.18838)" id="g444">
                    <g id="g446">
                      <g clip-path="url(#clipPath452)" id="g448">
                        <g id="g454">
                          <g transform="translate(-12,-207)" id="g456"/>
                        </g>
                      </g>
                    </g>
                  </g>
                  <g transform="matrix(0.0216506,0.0125,-0.0125,0.0216506,60.475304,247.47256)" id="g460">
                    <g id="g462">
                      <g clip-path="url(#clipPath468)" id="g464">
                        <g id="g470">
                          <g transform="translate(106,355)" id="g472"/>
                        </g>
                      </g>
                    </g>
                  </g>
                  <g transform="matrix(0.0216506,0.0125,-0.0125,0.0216506,82.834236,260.3815)" id="g476">
                    <g id="g478">
                      <g clip-path="url(#clipPath484)" id="g480">
                        <g id="g486">
                          <g transform="translate(-12,-207)" id="g488"/>
                        </g>
                      </g>
                    </g>
                  </g>
                  <g transform="matrix(0.0151554,0.00875,-0.00875,0.0151554,123.66799,279.2208)" id="g492">
                    <g id="g494">
                      <g clip-path="url(#clipPath500)" id="g496">
                        <g id="g502"/>
                      </g>
                    </g>
                  </g>
                  <g transform="matrix(0.0106088,0.006125,-0.006125,0.0106088,137.84275,284.08935)" id="g504">
                    <g id="g506">
                      <g clip-path="url(#clipPath512)" id="g508">
                        <g id="g514"/>
                      </g>
                    </g>
                  </g>
                  <g transform="matrix(0.02,0,0,0.02,221.75678,204.775)" id="g516">
                    <g id="g518">
                      <g clip-path="url(#clipPath524)" id="g520">
                        <g id="g526"/>
                      </g>
                    </g>
                  </g>
                </g>
              </g>
            </g>
          </g>
        </g>
      </g>
    </g>
  </g>
</svg>
